<svg xml:space="preserve" viewBox="0 0 100 100" y="0" x="0" xmlns="http://www.w3.org/2000/svg" id="Layer_1" version="1.1" style="height: 100%; width: 100%; background: rgb(221, 221, 221);" width="200px" height="200px"><g class="ldl-scale" style="transform-origin: 50% 50%; transform: rotate(0deg) scale(0.8, 0.8);"><g class="ldl-ani"><g class="ldl-layer"><g class="ldl-ani" style="transform: scale(0.91); transform-origin: 50px 50px; animation: 1.11111s linear -0.833333s infinite normal forwards running breath-fd68472a-0abf-4ea5-b88a-d97522a2dd4b;"><path d="M77.7 67.6L64.2 54.2 60.1 50 50 39.9 26.6 16.5l6.5-6.5H10v23.1l6.5-6.5 8.7 8.6L39.9 50 50 60.1l4.2 4.1 13.4 13.5 5.8 5.8-6.5 6.5H90V66.9l-6.5 6.5z" fill="#ea7c60" style="fill: rgb(255, 255, 255);"></path></g></g><g class="ldl-layer"><g class="ldl-ani" style="transform: scale(0.91); transform-origin: 50px 50px; animation: 1.11111s linear -1.11111s infinite normal forwards running breath-fd68472a-0abf-4ea5-b88a-d97522a2dd4b;"><path d="M79.9 10h-13l6.5 6.5-10 10.1L50 39.9 39.9 50l-5.5 5.6-8.5 8.5-9.4 9.3-6.5-6.5V90h23.1l-6.5-6.5 9.3-9.4 8.5-8.5 5.6-5.5L60.1 50l13.3-13.4 10.1-10 6.5 6.5V10z" fill="#c33837" style="fill: rgb(255, 255, 255);"></path></g></g><metadata xmlns:d="https://loading.io/stock/"><d:name>maximize</d:name><d:tags>resize,adjust,minimize,scale up,maximize,web application</d:tags><d:license>by</d:license><d:slug>itivet</d:slug></metadata></g></g></svg>